<?xml version="1.0" encoding="UTF-8" standalone="no"?>
<!-- Created with Inkscape (http://www.inkscape.org/) -->

<svg
   width="297mm"
   height="210mm"
   viewBox="0 0 297 210"
   version="1.1"
   id="svg1"
   xmlns="http://www.w3.org/2000/svg"
   xmlns:svg="http://www.w3.org/2000/svg">
  <defs
     id="defs1" />
  <g
     id="layer1">
    <path
       d="m 150.42803,28.541927 c -8.1498,1.47e-4 -15.68049,4.348086 -19.75539,11.406022 L 58.334941,165.24004 c -3.581405,6.20325 -3.581478,13.84622 0,20.04943 3.581477,6.2032 10.200409,10.02425 17.363281,10.02419 H 228.34368 c 6.50574,-2.1e-4 12.51728,-3.47123 15.7701,-9.10539 3.25282,-5.63416 3.25278,-12.57556 0,-18.20974 L 170.18393,39.947949 c -4.07499,-7.058096 -11.60592,-11.40606 -19.7559,-11.406022 z m 5.11648,56.682845 c 7.68541,0.07625 15.99705,0.632939 24.93491,1.669666 0.97348,0.139294 1.7236,0.258156 2.25051,0.35605 1.31729,0.244737 2.28121,0.92285 2.89233,2.034501 1.73808,3.35884 6.06534,9.652227 12.98164,18.880501 0.21864,0.29015 0.31306,0.51564 0.28318,0.67645 -0.12696,0.6834 -0.98085,0.87814 -2.5616,0.58446 -0.70255,-0.13053 -1.87662,-0.4107 -3.52278,-0.8413 -1.64616,-0.4306 -2.90865,-0.72774 -3.78685,-0.8909 -6.32298,-1.17473 -11.97873,-1.53955 -16.96744,-1.09399 -5.99206,0.46709 -9.24191,2.06763 -9.74979,4.80126 -0.45559,2.45222 2.14591,6.05452 7.80418,10.80709 9.95804,8.50417 15.17064,12.96625 15.6378,13.38575 5.4136,5.58046 7.71341,10.56143 6.89932,14.94327 -1.51616,8.16069 -10.32469,13.76094 -26.42474,16.80001 -14.12889,2.69829 -30.7645,2.99694 -49.90703,0.89607 -0.71002,-0.0903 -1.28483,-0.17629 -1.72393,-0.25787 -2.01984,-0.37526 -5.9754,-4.02134 -11.86749,-10.93835 -5.884627,-6.9572 -8.711636,-11.05898 -8.480105,-12.30519 0.08216,-0.4422 0.793509,-0.60111 2.133203,-0.47697 12.980252,1.03917 21.620062,1.47965 25.919352,1.32188 9.52157,-0.39358 14.66308,-2.64075 15.42489,-6.74119 0.48547,-2.61303 -1.95867,-6.08213 -7.33288,-10.40763 -9.34692,-7.39252 -14.40346,-11.47185 -15.16962,-12.23802 -5.28277,-5.30663 -7.45384,-10.49245 -6.51278,-15.5577 1.36678,-7.356678 9.92252,-12.08863 25.66769,-14.195519 6.43296,-0.884234 13.49262,-1.288575 21.17803,-1.212329 z"
       style="fill:#053b8d;stroke-width:0.264583;paint-order:stroke fill markers"
       id="path5" />
    <path
       d="m 155.54451,85.224772 c -7.68542,-0.07625 -14.74506,0.328094 -21.17803,1.212329 -15.74519,2.106891 -24.30091,6.838833 -25.66769,14.195519 -0.94106,5.06525 1.23,10.25107 6.51278,15.5577 0.76616,0.76617 5.82269,4.84549 15.16962,12.23802 5.37421,4.3255 7.81835,7.7946 7.33288,10.40763 -0.76181,4.10045 -5.90331,6.34761 -15.42489,6.74119 -4.29929,0.15777 -12.93908,-0.28271 -25.919352,-1.32188 -1.339696,-0.12414 -2.051046,0.0348 -2.133203,0.47697 -0.231531,1.24622 2.595472,5.34798 8.480105,12.30519 5.8921,6.91701 9.84765,10.56309 11.86749,10.93835 0.4391,0.0816 1.01391,0.16752 1.72393,0.25787 19.14255,2.10087 35.77813,1.80222 49.90703,-0.89607 16.10007,-3.03907 24.90858,-8.63932 26.42474,-16.80001 0.8141,-4.38185 -1.48571,-9.3628 -6.89932,-14.94327 -0.46717,-0.4195 -5.67975,-4.88157 -15.6378,-13.38575 -5.65828,-4.75257 -8.25977,-8.35486 -7.80418,-10.80709 0.50788,-2.73363 3.75773,-4.33417 9.74979,-4.80126 4.98871,-0.44556 10.64445,-0.0807 16.96744,1.09399 0.8782,0.16316 2.14069,0.4603 3.78685,0.8909 1.64616,0.4306 2.82023,0.71077 3.52278,0.8413 1.58075,0.29368 2.43464,0.0989 2.5616,-0.58446 0.0299,-0.16081 -0.0645,-0.3863 -0.28318,-0.67645 -6.9163,-9.228284 -11.24356,-15.521658 -12.98164,-18.880501 -0.61112,-1.111652 -1.57504,-1.789764 -2.89233,-2.034501 -0.52691,-0.09789 -1.27703,-0.216756 -2.25051,-0.35605 -8.93787,-1.036728 -17.24949,-1.59342 -24.93491,-1.669666 z"
       style="font-size:192px;font-family:'Berlin Sans FB Demi';-inkscape-font-specification:'Berlin Sans FB Demi';white-space:pre;fill:#f9f9f9;paint-order:stroke fill markers"
       id="path4" />
  </g>
</svg>
